<?xml version="1.0" encoding="utf-8"?>
<svg version="1.1" id="Layer_1" xmlns="http://www.w3.org/2000/svg" xmlns:xlink="http://www.w3.org/1999/xlink" x="0px" y="0px"
	 viewBox="0 0 36 36" style="enable-background:new 0 0 36 36;" xml:space="preserve">
<style type="text/css">
	.st0{display:none;fill:#262626;}
	.st1{fill:#35ACFC;}
	.st2{fill:#4C4C4C;}
</style>
<rect id="Background" x="0" class="st0" width="36" height="36"/>
<path id="apostrophe" class="st1" d="M27.86,9.12h3.26l-2.98,6.66h2.15l0.86-1.49c1.98-3.43,3.06-7.32,3.13-11.28
	C30.86,3.06,28.06,5.75,27.86,9.12z"/>
<g id="D_letter">
	<path id="D" class="st2" d="M31.94,16.34c0,2.14-0.76,4.45-2.26,6.86c-2,3.2-4.95,5.72-8.77,7.48c-3.54,1.63-7.39,2.46-11.46,2.46
		H8.14c-0.94,0-1.79-0.44-2.34-1.21c-0.54-0.77-0.68-1.72-0.36-2.6l3.94-11.17h5.58l-3.54,9.97c-0.26,0.73-0.11,1.52,0.41,2.1
		c0.52,0.58,1.28,0.82,2.03,0.65c1.55-0.36,3.1-1.02,4.63-1.98c2.44-1.53,4.25-3.45,5.38-5.7c1.01-1.99,1.53-3.69,1.53-5.05
		c0-2.26-0.66-3.92-1.96-4.94c-1.14-0.87-2.88-1.32-5.16-1.32H1.43c1.72-2.26,4.45-3.64,7.32-3.64h12.38c2.01,0,3.82,0.29,5.37,0.86
		v1.37h2.53l-2.98,6.66h5.03l0.85-1.47C31.94,15.89,31.94,16.12,31.94,16.34z"/>
	<polygon id="Dline" class="st2" points="10.4,15.26 15.98,15.26 15.32,17.12 9.75,17.12 	"/>
</g>
</svg>
