<?xml version="1.0" encoding="utf-8"?>
<!-- Generator: Adobe Illustrator 27.3.1, SVG Export Plug-In . SVG Version: 6.00 Build 0)  -->
<svg version="1.1" id="Layer_1" xmlns="http://www.w3.org/2000/svg" xmlns:xlink="http://www.w3.org/1999/xlink" x="0px" y="0px"
	 viewBox="0 0 36 36" style="enable-background:new 0 0 36 36;" xml:space="preserve">
<style type="text/css">
	.st0{fill:#35ACFC;}
	.st1{fill:#F2F2F2;stroke:#231F20;stroke-width:0.25;stroke-miterlimit:10;}
</style>
<path id="apostrophe" class="st0" d="M27.9,9.1h3.3l-3,6.7h2.1l0.9-1.5c2-3.4,3.1-7.3,3.1-11.3C30.9,3.1,28.1,5.8,27.9,9.1z"/>
<g id="D_letter">
	<path id="D" class="st1" d="M31.9,16.3c0,2.1-0.8,4.5-2.3,6.9c-2,3.2-5,5.7-8.8,7.5c-3.5,1.6-7.4,2.5-11.5,2.5H8.1
		c-0.9,0-1.8-0.4-2.3-1.2c-0.5-0.8-0.7-1.7-0.4-2.6l3.9-11.2H15l-3.5,10c-0.3,0.7-0.1,1.5,0.4,2.1c0.5,0.6,1.3,0.8,2,0.6
		c1.6-0.4,3.1-1,4.6-2c2.4-1.5,4.2-3.5,5.4-5.7c1-2,1.5-3.7,1.5-5c0-2.3-0.7-3.9-2-4.9c-1.1-0.9-2.9-1.3-5.2-1.3H1.4
		c1.7-2.3,4.4-3.6,7.3-3.6h12.4c2,0,3.8,0.3,5.4,0.9v1.4H29l-3,6.7h5l0.9-1.5C31.9,15.9,31.9,16.1,31.9,16.3z"/>
	<polygon id="Dline" class="st1" points="10.4,15.3 16,15.3 15.3,17.1 9.8,17.1 	"/>
</g>
</svg>
