<svg xmlns="http://www.w3.org/2000/svg" width="123.75" height="39.87" viewBox="0 0 123.75 39.87">
  <path id="Path_2" data-name="Path 2" d="M-49.275,1.53q-3.06,0-4.32-1.755a7.292,7.292,0,0,1-1.26-4.365,18.671,18.671,0,0,1,.675-4.725A36.444,36.444,0,0,1-52.425-14.4a15.3,15.3,0,0,1,1.935-6.93A16.332,16.332,0,0,1-45.45-27a12.717,12.717,0,0,1,7.515-2.25q4.23,0,5.9,2.43a9.94,9.94,0,0,1,1.665,5.76,18.42,18.42,0,0,1-.45,4.005A24.724,24.724,0,0,1-32-13.23a27.305,27.305,0,0,1-1.8,3.645,38.464,38.464,0,0,1-2.43,3.645A12.372,12.372,0,0,0-31.5-7.7a20.227,20.227,0,0,0,4.095-3.645q2.07-2.34,4.86-5.94a1.544,1.544,0,0,1,1.17-.63,1.74,1.74,0,0,1,1.215.45,1.508,1.508,0,0,1,.495,1.17,1.549,1.549,0,0,1-.36.99A71.275,71.275,0,0,1-25.29-8.82a20.017,20.017,0,0,1-5.985,4.5,18.163,18.163,0,0,1-8.01,1.62A19.649,19.649,0,0,1-43.965.36,12.462,12.462,0,0,1-49.275,1.53Zm5.22-23.31a12.64,12.64,0,0,0-2.61,3.24,40.163,40.163,0,0,0-2.79,5.31A7.791,7.791,0,0,0-47.16-8.235q2.115,2.205,6.525,2.475a24.757,24.757,0,0,0,5.22-7.425,18.608,18.608,0,0,0,1.98-7.7,6.141,6.141,0,0,0-1.08-3.78,4,4,0,0,0-3.42-1.44,9.4,9.4,0,0,0-3.15.54,11.161,11.161,0,0,0-2.79,1.44,1.473,1.473,0,0,1,.45,1.08A1.619,1.619,0,0,1-44.055-21.78Zm-7.65,17.01a4,4,0,0,0,.585,2.3,2.077,2.077,0,0,0,1.845.855,10.283,10.283,0,0,0,5.31-1.62,11.5,11.5,0,0,1-4.41-2.025,10.366,10.366,0,0,1-2.79-3.195A15.612,15.612,0,0,0-51.705-4.77ZM-26.6.18a2.5,2.5,0,0,1-2.16-.99,4.02,4.02,0,0,1-.72-2.43,10.853,10.853,0,0,1,1.26-4.86,39.334,39.334,0,0,1,3.06-5.22q1.8-2.61,3.96-5.4a20,20,0,0,0,1.3-1.89,31.74,31.74,0,0,0,1.575-2.79,4.416,4.416,0,0,0,.63-2.25,2.97,2.97,0,0,1,.63-2.3,2.18,2.18,0,0,1,1.62-.765,1.487,1.487,0,0,1,1.35.72,3.489,3.489,0,0,1,.54,1.98,7.721,7.721,0,0,1-.855,3.1,28.275,28.275,0,0,1-2.925,4.635q-1.62,2.16-3.555,4.635A41.713,41.713,0,0,0-24.165-8.82a8.358,8.358,0,0,0-1.35,3.96q0,1.17.99,1.17a4.769,4.769,0,0,0,1.8-.54A24.925,24.925,0,0,0-18.72-7.02q2.565-2.07,5.4-4.725T-8.1-16.92a49.844,49.844,0,0,0,3.465-3.96,1.587,1.587,0,0,1,1.35-.81,1.792,1.792,0,0,1,1.17.45,1.451,1.451,0,0,1,.54,1.17,1.614,1.614,0,0,1-.27.81q-.54.99-1.44,2.79T-5.04-12.6Q-5.9-10.53-6.48-8.775A9.3,9.3,0,0,0-7.065-6.12q0,.99.63.99A2.075,2.075,0,0,0-5.31-5.625q.675-.5,1.215-.855A42.5,42.5,0,0,0,.09-10.305Q2.025-12.33,3.645-14.13a1.108,1.108,0,0,1,.9-.45,1.128,1.128,0,0,1,.855.495,1.856,1.856,0,0,1,.4,1.215,2.038,2.038,0,0,1-.45,1.35,39.9,39.9,0,0,1-3.78,4.185A42.834,42.834,0,0,1-2.565-3.69,20.789,20.789,0,0,1-5.31-2.115a6.745,6.745,0,0,1-2.925.765,2.493,2.493,0,0,1-1.845-.675,3.332,3.332,0,0,1-.675-2.385,13.357,13.357,0,0,1,.5-3.33q.5-1.89,1.215-3.87A83.465,83.465,0,0,1-15.93-5.49,38.275,38.275,0,0,1-22.905-.9,9.061,9.061,0,0,1-26.6.18Zm47.34-28.17a2.824,2.824,0,0,1-1.935-.765,2.484,2.484,0,0,1-.855-1.935,2.8,2.8,0,0,1,.81-2.07,2.693,2.693,0,0,1,1.98-.81,2.8,2.8,0,0,1,2.07.81,2.8,2.8,0,0,1,.81,2.07,2.484,2.484,0,0,1-.855,1.935A2.936,2.936,0,0,1,20.745-27.99ZM7.425-.99a2.652,2.652,0,0,1-1.89-.675,2.909,2.909,0,0,1-.72-2.205,15.385,15.385,0,0,1,.9-4.635,43.713,43.713,0,0,1,2.34-5.67,46.291,46.291,0,0,1,3.1-5.4,23.113,23.113,0,0,1,3.195-3.915,2.083,2.083,0,0,1,1.53-.63,2.218,2.218,0,0,1,1.26.36,1.058,1.058,0,0,1,.54.9,1.3,1.3,0,0,1-.45.9,14.558,14.558,0,0,0-1.575,2.025q-.945,1.4-1.845,2.88a24.835,24.835,0,0,0-1.35,2.475q-.81,1.71-1.8,3.87A36.887,36.887,0,0,0,9.225-7.2a5.22,5.22,0,0,0-.27,1.35q0,.99.72.99a2.569,2.569,0,0,0,1.44-.585q.81-.585,1.44-1.035a42.5,42.5,0,0,0,4.185-3.825q1.935-2.025,3.555-3.825a1.108,1.108,0,0,1,.9-.45,1.128,1.128,0,0,1,.855.495,1.856,1.856,0,0,1,.405,1.215A2.037,2.037,0,0,1,22-11.52,31.126,31.126,0,0,1,18.27-7.335,46.508,46.508,0,0,1,14.085-3.69a16.693,16.693,0,0,1-3.1,1.8A8.513,8.513,0,0,1,7.425-.99Zm27.63.45a3.9,3.9,0,0,1-2.655-.9,3.162,3.162,0,0,1-1.035-2.52,15.453,15.453,0,0,1,1.71-6.885,65.527,65.527,0,0,1,3.915-6.84,63.5,63.5,0,0,0,3.645-6.255,9.9,9.9,0,0,1-3.24,1.44,14.445,14.445,0,0,1-3.51.45,9.148,9.148,0,0,1-3.78-.63,60.538,60.538,0,0,1-3.96,5.985Q23.9-13.68,21.78-11.25a39.692,39.692,0,0,1-3.555,3.69,1.944,1.944,0,0,1-1.26.54,1.473,1.473,0,0,1-1.08-.45,1.376,1.376,0,0,1-.45-.99,1.119,1.119,0,0,1,.36-.81q1.62-1.71,3.825-4.41t4.41-5.76a56.625,56.625,0,0,0,3.645-5.67,13.546,13.546,0,0,1,.5-4.05,22.026,22.026,0,0,1,1.62-4.32,15.441,15.441,0,0,1,2.3-3.465,3.57,3.57,0,0,1,2.61-1.4q1.44,0,1.44,1.71a10.933,10.933,0,0,1-.855,3.69,38.117,38.117,0,0,1-1.98,4.365q-1.125,2.115-1.935,3.465a8.216,8.216,0,0,0,2.43.36,7.984,7.984,0,0,0,3.78-.855,30.476,30.476,0,0,0,2.88-1.71,4.079,4.079,0,0,1,2.16-.855,1.8,1.8,0,0,1,1.575.585,2.551,2.551,0,0,1,.4,1.485,9.271,9.271,0,0,1-.9,3.735,13.37,13.37,0,0,1-1.35,2.565q-.63.99-1.89,2.925t-2.52,4.1a33.257,33.257,0,0,0-2.07,4.14q-.36.99-.675,2.025a6.215,6.215,0,0,0-.315,1.755q0,1.17.99,1.17a6.335,6.335,0,0,0,2.61-.9A17.33,17.33,0,0,0,42.48-7.605L45.675-10.8q.09-.09.855-.9l1.53-1.62.765-.81a1.108,1.108,0,0,1,.9-.45,1.128,1.128,0,0,1,.855.495,1.856,1.856,0,0,1,.4,1.215,2.037,2.037,0,0,1-.45,1.35,30.634,30.634,0,0,1-3.69,4.14q-2.34,2.25-4.14,3.69A19.007,19.007,0,0,1,38.88-1.4,9.41,9.41,0,0,1,35.055-.54Zm30.96-27.45a2.824,2.824,0,0,1-1.935-.765,2.484,2.484,0,0,1-.855-1.935,2.8,2.8,0,0,1,.81-2.07,2.693,2.693,0,0,1,1.98-.81,2.8,2.8,0,0,1,2.07.81,2.8,2.8,0,0,1,.81,2.07,2.484,2.484,0,0,1-.855,1.935A2.936,2.936,0,0,1,66.015-27.99ZM52.7-.99a2.652,2.652,0,0,1-1.89-.675,2.909,2.909,0,0,1-.72-2.205,15.385,15.385,0,0,1,.9-4.635,43.713,43.713,0,0,1,2.34-5.67,46.291,46.291,0,0,1,3.1-5.4,23.113,23.113,0,0,1,3.195-3.915,2.083,2.083,0,0,1,1.53-.63,2.218,2.218,0,0,1,1.26.36,1.058,1.058,0,0,1,.54.9,1.3,1.3,0,0,1-.45.9,14.558,14.558,0,0,0-1.575,2.025q-.945,1.4-1.845,2.88a24.834,24.834,0,0,0-1.35,2.475q-.81,1.71-1.8,3.87A36.886,36.886,0,0,0,54.5-7.2a5.22,5.22,0,0,0-.27,1.35q0,.99.72.99a2.569,2.569,0,0,0,1.44-.585q.81-.585,1.44-1.035a42.5,42.5,0,0,0,4.185-3.825q1.935-2.025,3.555-3.825a1.108,1.108,0,0,1,.9-.45,1.128,1.128,0,0,1,.855.495,1.856,1.856,0,0,1,.4,1.215,2.037,2.037,0,0,1-.45,1.35A31.126,31.126,0,0,1,63.54-7.335,46.508,46.508,0,0,1,59.355-3.69a16.693,16.693,0,0,1-3.1,1.8A8.513,8.513,0,0,1,52.7-.99Z" transform="translate(54.855 38.34)"/>
</svg>

